<?xml version="1.0" encoding="utf-8"?>
<!-- Generator: Adobe Illustrator 23.0.1, SVG Export Plug-In . SVG Version: 6.00 Build 0)  -->
<svg version="1.1" id="Layer_1" xmlns="http://www.w3.org/2000/svg" xmlns:xlink="http://www.w3.org/1999/xlink" x="0px" y="0px"
	 viewBox="0 0 500 500" style="enable-background:new 0 0 500 500;" xml:space="preserve">
<g>
	<g>
		<g>
			<path d="M160.87,166.81h59.95v21.53c8.16-9.94,16.45-16.62,24.84-20.04c8.39-3.42,18.22-5.13,29.48-5.13
				c11.93,0,22.14,1.93,30.64,5.8c8.5,3.86,15.74,9.33,21.69,16.4c4.86,5.74,8.17,12.15,9.94,19.21c1.76,7.07,2.65,15.13,2.65,24.18
				v107.98h-59.95v-85.79c0-8.39-0.61-15.18-1.82-20.37c-1.21-5.18-3.37-9.33-6.46-12.42c-2.65-2.65-5.63-4.52-8.94-5.63
				c-3.31-1.1-6.85-1.66-10.6-1.66c-10.16,0-17.95,3.04-23.35,9.11c-5.42,6.07-8.11,14.74-8.11,26v90.76h-59.95V166.81z"/>
		</g>
	</g>
	<g>
		<path d="M250.46,494.49c-134.84,0-244.53-109.7-244.53-244.53S115.63,5.42,250.46,5.42S495,115.12,495,249.95
			S385.3,494.49,250.46,494.49z M250.46,56.37c-106.74,0-193.58,86.84-193.58,193.58s86.84,193.58,193.58,193.58
			s193.59-86.84,193.59-193.58S357.2,56.37,250.46,56.37z"/>
	</g>
</g>
</svg>
